<svg width="264" height="213" viewBox="0 0 264 213" fill="none" xmlns="http://www.w3.org/2000/svg">
<path d="M246.963 157.45V44.92C246.963 30.5967 246.963 23.435 244.175 17.9642C241.723 13.1519 237.811 9.23942 232.999 6.78755C227.528 4 220.366 4 206.042 4H57.7075C43.3841 4 36.2225 4 30.7517 6.78755C25.9394 9.23942 22.0269 13.1519 19.575 17.9642C16.7875 23.435 16.7875 30.5967 16.7875 44.92V157.45M38.1 208.6H225.65C233.578 208.6 237.542 208.6 240.794 207.729C249.62 205.363 256.513 198.47 258.879 189.644C259.75 186.392 259.75 182.428 259.75 174.5C259.75 170.535 259.75 168.553 259.314 166.928C258.132 162.515 254.685 159.068 250.272 157.886C248.647 157.45 246.665 157.45 242.7 157.45H21.05C17.086 157.45 15.104 157.45 13.4778 157.886C9.065 159.068 5.61813 162.515 4.43567 166.928C4 168.553 4 170.535 4 174.5C4 182.428 4 186.392 4.87147 189.644C7.23626 198.47 14.13 205.363 22.9557 207.729C26.2079 208.6 30.172 208.6 38.1 208.6Z" stroke="#E67E22" stroke-width="7" stroke-linecap="round" stroke-linejoin="round"/>
</svg>
