<svg width="257" height="284" viewBox="0 0 257 284" fill="none" xmlns="http://www.w3.org/2000/svg">
<path opacity="1" d="M5.98893 44.0008C0.625001 51.6206 0.625 74.2702 0.625 119.57V141.878C0.625 221.75 60.8535 260.511 98.642 276.97C108.892 281.434 114.017 283.667 128.5 283.667C142.983 283.667 148.108 281.434 158.357 276.97C196.146 260.511 256.375 221.75 256.375 141.878V119.57C256.375 74.2702 256.375 51.6206 251.011 44.0008C245.648 36.381 224.288 29.0911 181.57 14.5112L173.431 11.7335C151.162 4.1334 140.029 0.333336 128.5 0.333336C116.971 0.333336 105.838 4.1334 83.5693 11.7335L75.4306 14.5112C32.712 29.0911 11.3527 36.381 5.98893 44.0008Z" fill="#906A3D"/>
<path d="M112.321 90.4808L110.458 93.8119C108.412 97.4709 107.389 99.3004 105.795 100.508C104.199 101.715 102.213 102.163 98.241 103.059L94.6245 103.875C80.6453 107.028 73.6558 108.605 71.9929 113.937C70.3299 119.27 75.095 124.824 84.625 135.937L87.0906 138.811C89.7987 141.969 91.1528 143.547 91.762 145.501C92.3711 147.454 92.1664 149.559 91.7569 153.772L91.3842 157.609C89.9434 172.433 89.223 179.846 93.5766 183.141C97.9302 186.437 104.475 183.432 117.564 177.424L120.95 175.868C124.669 174.161 126.529 173.307 128.5 173.307C130.471 173.307 132.33 174.161 136.05 175.868L139.436 177.424C152.525 183.432 159.069 186.437 163.422 183.141C167.777 179.846 167.056 172.433 165.615 157.609L165.243 153.772C164.833 149.559 164.629 147.453 165.238 145.501C165.846 143.547 167.2 141.969 169.909 138.811L172.375 135.937C181.905 124.824 186.67 119.27 185.006 113.937C183.344 108.605 176.355 107.028 162.375 103.875L158.758 103.059C154.787 102.163 152.8 101.715 151.205 100.508C149.611 99.3005 148.588 97.471 146.542 93.8122L144.679 90.4808C137.481 77.6048 133.881 71.1667 128.5 71.1667C123.119 71.1667 119.519 77.6048 112.321 90.4808Z" fill="#906A3D"/>
<path opacity="0.5" d="M5.98893 44.0008C0.625001 51.6206 0.625 74.2702 0.625 119.57V141.878C0.625 221.75 60.8535 260.511 98.642 276.97C108.892 281.434 114.017 283.667 128.5 283.667C142.983 283.667 148.108 281.434 158.357 276.97C196.146 260.511 256.375 221.75 256.375 141.878V119.57C256.375 74.2702 256.375 51.6206 251.011 44.0008C245.648 36.381 224.288 29.0911 181.57 14.5112L173.431 11.7335C151.162 4.1334 140.029 0.333336 128.5 0.333336C116.971 0.333336 105.838 4.1334 83.5693 11.7335L75.4306 14.5112C32.712 29.0911 11.3527 36.381 5.98893 44.0008Z" fill="#007102"/>
<path d="M112.321 90.4808L110.458 93.8119C108.412 97.4709 107.389 99.3004 105.795 100.508C104.199 101.715 102.213 102.163 98.241 103.059L94.6245 103.875C80.6453 107.028 73.6558 108.605 71.9929 113.937C70.3299 119.27 75.095 124.824 84.625 135.937L87.0906 138.811C89.7987 141.969 91.1528 143.547 91.762 145.501C92.3711 147.454 92.1664 149.559 91.7569 153.772L91.3842 157.609C89.9434 172.433 89.223 179.846 93.5766 183.141C97.9302 186.437 104.475 183.432 117.564 177.424L120.95 175.868C124.669 174.161 126.529 173.307 128.5 173.307C130.471 173.307 132.33 174.161 136.05 175.868L139.436 177.424C152.525 183.432 159.069 186.437 163.422 183.141C167.777 179.846 167.056 172.433 165.615 157.609L165.243 153.772C164.833 149.559 164.629 147.453 165.238 145.501C165.846 143.547 167.2 141.969 169.909 138.811L172.375 135.937C181.905 124.824 186.67 119.27 185.006 113.937C183.344 108.605 176.355 107.028 162.375 103.875L158.758 103.059C154.787 102.163 152.8 101.715 151.205 100.508C149.611 99.3005 148.588 97.471 146.542 93.8122L144.679 90.4808C137.481 77.6048 133.881 71.1667 128.5 71.1667C123.119 71.1667 119.519 77.6048 112.321 90.4808Z" fill="#F8F8F8"/>
</svg>
