<svg width="256" height="245" viewBox="0 0 256 245" fill="none" xmlns="http://www.w3.org/2000/svg">
<path d="M186 162.75H58.125V232.5H186V162.75Z" fill="#BF360C"/>
<path d="M40.6875 162.75C53.5281 162.75 63.9375 152.341 63.9375 139.5C63.9375 126.659 53.5281 116.25 40.6875 116.25C27.8469 116.25 17.4375 126.659 17.4375 139.5C17.4375 152.341 27.8469 162.75 40.6875 162.75Z" fill="#FFA726"/>
<path d="M203.438 162.75C216.278 162.75 226.688 152.341 226.688 139.5C226.688 126.659 216.278 116.25 203.438 116.25C190.597 116.25 180.188 126.659 180.188 139.5C180.188 152.341 190.597 162.75 203.438 162.75Z" fill="#FFA726"/>
<path d="M209.25 98.8125C209.25 24.9937 34.875 50.5687 34.875 98.8125C34.875 109.275 34.875 146.475 34.875 156.938C34.875 205.181 73.8187 244.125 122.062 244.125C170.306 244.125 209.25 205.181 209.25 156.938C209.25 146.475 209.25 109.275 209.25 98.8125Z" fill="#FFB74D"/>
<path d="M156.938 151.125C163.358 151.125 168.562 145.92 168.562 139.5C168.562 133.08 163.358 127.875 156.938 127.875C150.517 127.875 145.312 133.08 145.312 139.5C145.312 145.92 150.517 151.125 156.938 151.125Z" fill="#784719"/>
<path d="M87.1875 151.125C93.6078 151.125 98.8125 145.92 98.8125 139.5C98.8125 133.08 93.6078 127.875 87.1875 127.875C80.7672 127.875 75.5625 133.08 75.5625 139.5C75.5625 145.92 80.7672 151.125 87.1875 151.125Z" fill="#784719"/>
<path d="M122.062 0C72.6562 0 0 33.7125 0 195.3L58.125 232.5V127.875L155.775 70.9125L186 110.438V232.5L244.125 184.837C244.125 152.287 238.894 16.275 154.613 16.275L146.475 0H122.062Z" fill="#FF5722"/>
<path d="M244.125 127.875C240.637 127.875 238.312 130.2 238.312 133.688V93C238.312 41.85 196.463 0 145.312 0H93C89.5125 0 87.1875 2.325 87.1875 5.8125C87.1875 9.3 89.5125 11.625 93 11.625H145.312C190.069 11.625 226.688 48.2438 226.688 93V151.125C226.688 154.613 229.012 156.938 232.5 156.938C235.988 156.938 238.312 154.613 238.312 151.125V162.75C238.312 185.419 220.294 203.438 197.625 203.438H122.062C118.575 203.438 116.25 205.762 116.25 209.25C116.25 212.738 118.575 215.062 122.062 215.062H197.625C226.688 215.062 249.938 191.812 249.938 162.75V133.688C249.938 130.2 247.613 127.875 244.125 127.875Z" fill="#757575"/>
<path d="M244.125 116.25H238.312C231.919 116.25 226.688 121.481 226.688 127.875V151.125C226.688 157.519 231.919 162.75 238.312 162.75H244.125C250.519 162.75 255.75 157.519 255.75 151.125V127.875C255.75 121.481 250.519 116.25 244.125 116.25Z" fill="#37474F"/>
<path d="M122.062 220.875C128.483 220.875 133.688 215.67 133.688 209.25C133.688 202.83 128.483 197.625 122.062 197.625C115.642 197.625 110.438 202.83 110.438 209.25C110.438 215.67 115.642 220.875 122.062 220.875Z" fill="#37474F"/>
</svg>
