<svg xmlns="http://www.w3.org/2000/svg" xmlns:xlink="http://www.w3.org/1999/xlink" width="500" zoomAndPan="magnify" viewBox="0 0 375 374.999991" height="500" preserveAspectRatio="xMidYMid meet" version="1.0"><defs><clipPath id="id1"><path d="M 14 253 L 361 253 L 361 351.683594 L 14 351.683594 Z M 14 253 " clip-rule="nonzero"/></clipPath><clipPath id="id2"><path d="M 241 327 L 257 327 L 257 337.957031 L 241 337.957031 Z M 241 327 " clip-rule="nonzero"/></clipPath><clipPath id="id3"><path d="M 269.523438 310.066406 C 269.523438 310.066406 264.917969 317.503906 258.628906 313.164062 L 241 337.867188 L 278.207031 319.007812 Z M 269.523438 310.066406 " clip-rule="nonzero"/></clipPath><clipPath id="id4"><path d="M 213 335 L 228 335 L 228 345 L 213 345 Z M 213 335 " clip-rule="nonzero"/></clipPath><clipPath id="id5"><path d="M 250.921875 331.671875 C 250.921875 331.671875 243.480469 336.363281 239.761719 329.722656 L 213.1875 344.332031 L 254.910156 343.445312 Z M 250.921875 331.671875 " clip-rule="nonzero"/></clipPath><clipPath id="id6"><path d="M 151 324 L 202 324 L 202 351.683594 L 151 351.683594 Z M 151 324 " clip-rule="nonzero"/></clipPath><clipPath id="id7"><path d="M 59 23.183594 L 92 23.183594 L 92 42 L 59 42 Z M 59 23.183594 " clip-rule="nonzero"/></clipPath><clipPath id="id8"><path d="M 59 23.183594 L 92 23.183594 L 92 42 L 59 42 Z M 59 23.183594 " clip-rule="nonzero"/></clipPath><clipPath id="id9"><path d="M 272.003906 109 L 281.75 109 L 281.75 112 L 272.003906 112 Z M 272.003906 109 " clip-rule="nonzero"/></clipPath><clipPath id="id10"><path d="M 272.535156 109.070312 L 281.570312 110.308594 C 281.570312 110.308594 280.863281 114.207031 276.699219 113.675781 C 272.535156 113.144531 272.535156 109.070312 272.535156 109.070312 Z M 272.535156 109.070312 " clip-rule="nonzero"/></clipPath></defs><g clip-path="url(#id1)"><path fill="#000000" d="M 244.277344 254.636719 L 229.132812 351.683594 L 219.210938 351.683594 L 231.789062 253.21875 Z M 298.578125 253.21875 L 310.183594 351.683594 L 321.699219 351.683594 L 312.484375 253.21875 Z M 335.691406 254.636719 L 350.839844 351.683594 L 360.761719 351.683594 L 348.183594 253.21875 Z M 62.425781 253.21875 L 53.214844 351.683594 L 64.730469 351.683594 L 76.332031 253.21875 Z M 26.730469 253.21875 L 14.238281 351.683594 L 24.160156 351.683594 L 39.308594 254.636719 Z M 26.730469 253.21875 " fill-opacity="1" fill-rule="nonzero"/></g><path fill="#ffffff" d="M 106.980469 326.710938 L 109.285156 332.910156 L 136.476562 340.96875 L 140.90625 339.195312 L 118.585938 329.101562 Z M 106.980469 326.710938 " fill-opacity="1" fill-rule="nonzero"/><path fill="#ffffff" d="M 198.574219 324.410156 L 183.515625 327.863281 L 167.125 336.273438 L 167.125 341.5 L 183.25 335.742188 L 196.710938 329.101562 Z M 198.574219 324.410156 " fill-opacity="1" fill-rule="nonzero"/><path fill="#ffffff" d="M 224.613281 344.421875 L 231.699219 341.765625 L 250.835938 342.03125 L 254.820312 343.445312 L 248.355469 345.75 L 227.273438 345.75 Z M 224.613281 344.421875 " fill-opacity="1" fill-rule="nonzero"/><path fill="#ffffff" d="M 278.207031 319.007812 L 257.300781 327.332031 L 235.511719 337.335938 L 237.015625 341.5 L 260.84375 328.835938 L 277.9375 319.984375 Z M 278.207031 319.007812 " fill-opacity="1" fill-rule="nonzero"/><path fill="#ffffff" d="M 294.148438 134.214844 L 357.660156 134.214844 C 367.492188 134.214844 374.757812 142.363281 372.808594 151.039062 L 352.523438 238.789062 L 352.523438 246.226562 C 352.523438 250.828125 348.449219 254.546875 343.398438 254.546875 L 261.640625 254.546875 L 261.640625 222.9375 L 318.15625 218.953125 Z M 294.148438 134.214844 " fill-opacity="1" fill-rule="nonzero"/><path fill="#ffffff" d="M 262.792969 296.074219 L 271.117188 313.875 L 262.171875 318.742188 L 252.164062 301.300781 Z M 262.792969 296.074219 " fill-opacity="1" fill-rule="nonzero"/><path fill="#000000" d="M 269.523438 310.066406 C 269.523438 310.066406 264.917969 317.503906 258.628906 313.164062 L 241 337.867188 L 278.207031 319.007812 Z M 269.523438 310.066406 " fill-opacity="1" fill-rule="nonzero"/><g clip-path="url(#id2)"><g clip-path="url(#id3)"><path fill="#ffffff" d="M 241.535156 328.128906 C 241.535156 328.128906 251.453125 324.941406 256.414062 336.71875 L 238.257812 340.257812 Z M 241.535156 328.128906 " fill-opacity="1" fill-rule="nonzero"/></g></g><path fill="#ffffff" d="M 240.988281 337.835938 L 278.210938 319 L 279.851562 322.238281 L 242.628906 341.074219 Z M 240.988281 337.835938 " fill-opacity="1" fill-rule="nonzero"/><path fill="#ffffff" d="M 258.894531 320.867188 C 258.804688 320.867188 258.628906 320.867188 258.539062 320.78125 C 256.148438 319.628906 254.199219 319.363281 254.199219 319.363281 C 253.847656 319.363281 253.582031 319.007812 253.582031 318.65625 C 253.667969 318.300781 254.023438 318.035156 254.378906 318.035156 C 254.464844 318.035156 256.59375 318.300781 259.160156 319.539062 C 259.515625 319.71875 259.601562 320.070312 259.425781 320.425781 C 259.335938 320.691406 259.160156 320.78125 258.894531 320.867188 Z M 258.894531 320.867188 " fill-opacity="1" fill-rule="nonzero"/><path fill="#ffffff" d="M 256.59375 323.878906 C 256.503906 323.878906 256.324219 323.878906 256.238281 323.789062 C 253.847656 322.640625 251.898438 322.375 251.898438 322.375 C 251.542969 322.375 251.277344 322.019531 251.277344 321.664062 C 251.367188 321.3125 251.71875 321.046875 252.074219 321.046875 C 252.164062 321.046875 254.289062 321.3125 256.859375 322.550781 C 257.210938 322.726562 257.300781 323.082031 257.125 323.4375 C 257.125 323.703125 256.859375 323.878906 256.59375 323.878906 Z M 256.59375 323.878906 " fill-opacity="1" fill-rule="nonzero"/><path fill="#ffffff" d="M 254.378906 326.890625 C 254.289062 326.890625 254.113281 326.890625 254.023438 326.800781 C 251.632812 325.648438 249.683594 325.382812 249.683594 325.382812 C 249.328125 325.382812 249.0625 325.03125 249.0625 324.675781 C 249.152344 324.320312 249.503906 324.054688 249.859375 324.054688 C 249.949219 324.054688 252.074219 324.320312 254.644531 325.5625 C 254.996094 325.738281 255.085938 326.09375 254.910156 326.445312 C 254.820312 326.800781 254.554688 326.890625 254.378906 326.890625 Z M 254.378906 326.890625 " fill-opacity="1" fill-rule="nonzero"/><path fill="#ffffff" d="M 250.835938 316.085938 L 250.65625 335.742188 L 240.46875 336.273438 L 239.054688 316.265625 Z M 250.835938 316.085938 " fill-opacity="1" fill-rule="nonzero"/><path fill="#000000" d="M 250.921875 331.671875 C 250.921875 331.671875 243.480469 336.363281 239.761719 329.722656 L 213.1875 344.332031 L 254.910156 343.445312 Z M 250.921875 331.671875 " fill-opacity="1" fill-rule="nonzero"/><g clip-path="url(#id4)"><g clip-path="url(#id5)"><path fill="#ffffff" d="M 217.792969 335.832031 C 217.792969 335.832031 228.070312 337.25 227.539062 350 L 209.644531 345.394531 Z M 217.792969 335.832031 " fill-opacity="1" fill-rule="nonzero"/></g></g><path fill="#ffffff" d="M 213.160156 344.441406 L 254.875 343.539062 L 254.953125 347.167969 L 213.238281 348.070312 Z M 213.160156 344.441406 " fill-opacity="1" fill-rule="nonzero"/><path fill="#ffffff" d="M 236.660156 336.71875 C 236.574219 336.71875 236.484375 336.628906 236.394531 336.539062 C 234.710938 334.414062 233.117188 333.441406 233.117188 333.441406 C 232.765625 333.265625 232.675781 332.820312 232.941406 332.554688 C 233.117188 332.289062 233.5625 332.203125 233.914062 332.378906 C 234.003906 332.46875 235.777344 333.53125 237.546875 335.832031 C 237.8125 336.097656 237.722656 336.539062 237.371094 336.804688 C 237.105469 336.804688 236.839844 336.804688 236.660156 336.71875 Z M 236.660156 336.71875 " fill-opacity="1" fill-rule="nonzero"/><path fill="#ffffff" d="M 233.296875 338.488281 C 233.207031 338.488281 233.117188 338.398438 233.03125 338.3125 C 231.347656 336.1875 229.753906 335.210938 229.753906 335.210938 C 229.398438 335.035156 229.308594 334.59375 229.574219 334.328125 C 229.753906 334.0625 230.195312 333.972656 230.550781 334.148438 C 230.636719 334.238281 232.410156 335.300781 234.179688 337.601562 C 234.445312 337.867188 234.359375 338.3125 234.003906 338.578125 C 233.738281 338.578125 233.472656 338.578125 233.296875 338.488281 Z M 233.296875 338.488281 " fill-opacity="1" fill-rule="nonzero"/><path fill="#ffffff" d="M 229.929688 340.257812 C 229.839844 340.257812 229.753906 340.171875 229.664062 340.082031 C 227.980469 337.957031 226.386719 336.984375 226.386719 336.984375 C 226.03125 336.804688 225.945312 336.363281 226.210938 336.097656 C 226.386719 335.832031 226.828125 335.742188 227.183594 335.921875 C 227.273438 336.007812 229.042969 337.070312 230.902344 339.375 C 231.167969 339.640625 231.082031 340.082031 230.726562 340.347656 C 230.371094 340.347656 230.105469 340.347656 229.929688 340.257812 Z M 229.929688 340.257812 " fill-opacity="1" fill-rule="nonzero"/><path fill="#ffad65" d="M 277.230469 199.652344 C 277.230469 200.359375 277.230469 200.980469 277.230469 201.6875 C 276.964844 212.136719 275.726562 222.582031 274.925781 233.03125 C 273.953125 239.054688 271.472656 241 269.523438 241.445312 C 269.4375 241.621094 269.257812 241.796875 269.171875 241.976562 L 264.828125 248.085938 C 264.476562 248.703125 263.679688 248.96875 262.96875 248.703125 C 262.4375 248.527344 261.816406 247.996094 262.4375 246.578125 L 261.816406 247.996094 C 261.464844 248.703125 260.578125 248.96875 259.78125 248.617188 C 259.070312 248.351562 258.804688 247.464844 259.070312 246.578125 L 258.539062 247.554688 C 258.1875 248.261719 257.125 248.527344 256.324219 248.085938 C 255.617188 247.730469 255.351562 246.84375 255.707031 246.226562 L 256.324219 244.808594 L 256.414062 244.632812 L 255.261719 246.136719 C 254.820312 246.933594 253.757812 247.109375 252.871094 246.667969 C 252.164062 246.226562 251.898438 245.339844 252.25 244.632812 L 256.148438 235.777344 L 254.113281 234.804688 C 253.402344 234.449219 252.960938 233.742188 253.046875 232.945312 C 253.136719 232.148438 253.847656 231.617188 254.730469 231.617188 L 266.246094 231.4375 C 263.324219 209.65625 260.753906 187.964844 258.71875 166.09375 C 258.628906 161.132812 263.148438 157.0625 268.460938 157.0625 C 268.636719 157.0625 268.816406 157.0625 268.992188 157.0625 C 273.953125 157.328125 273.953125 162.460938 275.015625 166.976562 C 277.230469 177.425781 277.40625 188.316406 277.230469 199.652344 Z M 277.230469 199.652344 " fill-opacity="1" fill-rule="nonzero"/><path fill="#000000" d="M 256.148438 245.25 C 256.148438 245.25 256.058594 245.25 256.148438 245.25 C 255.972656 245.164062 255.972656 245.074219 255.972656 244.984375 L 258.363281 239.851562 C 258.363281 239.761719 258.539062 239.761719 258.628906 239.761719 C 258.71875 239.761719 258.71875 239.9375 258.71875 240.027344 L 256.324219 245.164062 C 256.238281 245.25 256.238281 245.25 256.148438 245.25 Z M 256.148438 245.25 " fill-opacity="1" fill-rule="nonzero"/><path fill="#000000" d="M 259.160156 246.492188 C 258.984375 246.402344 258.984375 246.3125 258.984375 246.226562 L 261.550781 241.53125 C 261.640625 241.445312 261.730469 241.445312 261.816406 241.445312 C 261.90625 241.53125 261.90625 241.621094 261.90625 241.710938 L 259.335938 246.402344 C 259.335938 246.492188 259.25 246.492188 259.160156 246.492188 Z M 259.160156 246.492188 " fill-opacity="1" fill-rule="nonzero"/><path fill="#000000" d="M 262.082031 247.109375 C 261.90625 247.023438 261.90625 246.933594 261.90625 246.84375 L 264.121094 242.949219 C 264.210938 242.859375 264.296875 242.859375 264.386719 242.859375 C 264.476562 242.949219 264.476562 243.039062 264.476562 243.125 L 262.261719 247.023438 C 262.261719 247.109375 262.171875 247.109375 262.082031 247.109375 Z M 262.082031 247.109375 " fill-opacity="1" fill-rule="nonzero"/><path fill="#f89a00" d="M 320.546875 209.746094 L 320.546875 231.351562 C 320.546875 241.179688 312.398438 248.96875 302.652344 248.617188 L 266.070312 247.289062 L 261.550781 282.175781 L 269.082031 305.019531 L 258.097656 308.648438 L 256.058594 324.410156 L 235.597656 322.816406 L 235.246094 278.277344 L 222.578125 252.511719 C 218.679688 244.632812 222.222656 235.15625 230.550781 231.351562 L 239.230469 227.453125 C 242.863281 222.9375 248.089844 219.75 254.113281 218.953125 Z M 320.546875 209.746094 " fill-opacity="1" fill-rule="nonzero"/><path fill="#3f2952" d="M 272.183594 141.125 C 272.183594 141.125 259.070312 148.914062 256.59375 170.078125 L 275.28125 180.347656 Z M 272.183594 141.125 " fill-opacity="1" fill-rule="nonzero"/><path fill="#3f2952" d="M 297.25 134.480469 C 303.714844 135.011719 310.003906 136.429688 316.027344 138.820312 C 318.332031 139.707031 320.988281 140.855469 322.40625 143.070312 C 324.265625 145.992188 322.847656 149.269531 322.671875 152.457031 C 322.671875 152.457031 320.898438 217.535156 320.898438 217.535156 L 267.488281 217.535156 L 265.539062 154.582031 C 265.09375 147.851562 269.082031 141.742188 275.195312 139.527344 C 282.101562 137.136719 290.519531 134.394531 294.148438 134.128906 Z M 297.25 134.480469 " fill-opacity="1" fill-rule="nonzero"/><path fill="#000000" d="M 266.601562 176.453125 C 266.425781 176.453125 266.335938 176.363281 266.335938 176.1875 L 265.894531 157.0625 C 265.894531 156.882812 265.980469 156.796875 266.160156 156.707031 C 266.335938 156.707031 266.425781 156.796875 266.511719 156.972656 L 266.957031 176.097656 C 266.957031 176.273438 266.777344 176.453125 266.601562 176.453125 Z M 266.601562 176.453125 " fill-opacity="1" fill-rule="nonzero"/><path fill="#ffad65" d="M 278.292969 138.554688 C 278.292969 138.554688 287.949219 134.746094 294.148438 134.304688 C 294.148438 134.304688 302.5625 134.660156 308.410156 136.429688 C 308.410156 136.429688 305.222656 143.25 290.339844 144.398438 C 275.546875 145.460938 278.292969 138.554688 278.292969 138.554688 Z M 278.292969 138.554688 " fill-opacity="1" fill-rule="nonzero"/><path fill="#ffffff" d="M 32.132812 121.730469 L 17.339844 121.730469 C 7.507812 121.730469 0.242188 130.761719 2.191406 140.324219 L 22.476562 237.195312 L 22.476562 245.429688 C 22.476562 250.476562 26.550781 254.546875 31.601562 254.546875 L 113.359375 254.546875 L 113.359375 219.660156 L 56.84375 215.324219 Z M 32.132812 121.730469 " fill-opacity="1" fill-rule="nonzero"/><path fill="#000000" d="M 146.222656 329.722656 L 163.050781 322.019531 L 198.574219 324.410156 L 151.535156 346.367188 Z M 146.222656 329.722656 " fill-opacity="1" fill-rule="nonzero"/><g clip-path="url(#id6)"><path fill="#ffffff" d="M 164.734375 343.535156 C 163.140625 344.242188 162.699219 346.101562 163.582031 347.699219 L 154.636719 351.683594 L 151.269531 345.660156 L 198.574219 324.410156 L 201.9375 330.429688 L 169.253906 345.039062 C 168.367188 343.445312 166.328125 342.828125 164.734375 343.535156 Z M 164.734375 343.535156 " fill-opacity="1" fill-rule="nonzero"/></g><path fill="#ffffff" d="M 172.882812 327.332031 C 172.707031 327.332031 172.53125 327.242188 172.441406 327.15625 C 172.265625 326.890625 172.265625 326.535156 172.53125 326.359375 L 177.136719 322.460938 C 177.402344 322.285156 177.757812 322.285156 177.933594 322.550781 C 178.109375 322.816406 178.109375 323.171875 177.84375 323.347656 L 173.238281 327.242188 C 173.148438 327.242188 173.0625 327.332031 172.882812 327.332031 Z M 172.882812 327.332031 " fill-opacity="1" fill-rule="nonzero"/><path fill="#ffffff" d="M 166.0625 327.15625 C 165.886719 327.15625 165.710938 327.066406 165.621094 326.976562 C 165.445312 326.710938 165.445312 326.359375 165.710938 326.179688 L 170.316406 322.285156 C 170.582031 322.109375 170.9375 322.109375 171.113281 322.375 C 171.289062 322.640625 171.289062 322.992188 171.023438 323.171875 L 166.417969 327.066406 C 166.328125 327.066406 166.242188 327.15625 166.0625 327.15625 Z M 166.0625 327.15625 " fill-opacity="1" fill-rule="nonzero"/><path fill="#ffad65" d="M 154.015625 298.464844 L 137.1875 306.257812 L 146.488281 330.519531 L 163.316406 322.726562 Z M 154.015625 298.464844 " fill-opacity="1" fill-rule="nonzero"/><path fill="#000000" d="M 97.769531 310.597656 L 115.308594 315.554688 L 140.90625 339.195312 L 91.039062 325.472656 Z M 97.769531 310.597656 " fill-opacity="1" fill-rule="nonzero"/><path fill="#ffffff" d="M 102.730469 331.847656 C 101.046875 331.40625 99.453125 332.378906 99.097656 334.0625 L 89.707031 331.40625 L 91.214844 325.03125 L 140.820312 339.285156 L 139.402344 345.660156 L 105.121094 335.832031 C 105.476562 334.0625 104.414062 332.289062 102.730469 331.847656 Z M 102.730469 331.847656 " fill-opacity="1" fill-rule="nonzero"/><path fill="#ffffff" d="M 125.9375 325.472656 L 119.914062 325.472656 C 119.558594 325.472656 119.382812 325.207031 119.382812 324.941406 C 119.382812 324.585938 119.558594 324.410156 119.914062 324.410156 L 125.9375 324.410156 C 126.292969 324.410156 126.46875 324.675781 126.46875 324.941406 C 126.558594 325.296875 126.292969 325.472656 125.9375 325.472656 Z M 125.9375 325.472656 " fill-opacity="1" fill-rule="nonzero"/><path fill="#ffffff" d="M 120.886719 321.132812 L 114.863281 321.132812 C 114.597656 321.132812 114.332031 320.867188 114.332031 320.601562 C 114.332031 320.335938 114.597656 320.070312 114.863281 320.070312 L 120.886719 320.070312 C 121.242188 320.070312 121.417969 320.335938 121.417969 320.601562 C 121.507812 320.867188 121.242188 321.132812 120.886719 321.132812 Z M 120.886719 321.132812 " fill-opacity="1" fill-rule="nonzero"/><path fill="#ffad65" d="M 124.253906 292.976562 L 106.449219 288.019531 L 97.503906 311.21875 L 115.308594 316.085938 Z M 124.253906 292.976562 " fill-opacity="1" fill-rule="nonzero"/><path fill="#3f2952" d="M 129.921875 208.503906 L 144.804688 215.324219 C 154.726562 219.839844 159.066406 231.171875 154.371094 240.648438 L 120.089844 310.597656 L 98.65625 303.511719 Z M 129.921875 208.503906 " fill-opacity="1" fill-rule="nonzero"/><path fill="#3f2952" d="M 36.914062 189.46875 L 36.914062 215.324219 C 36.914062 227.101562 46.660156 236.484375 58.441406 236.042969 L 102.285156 234.449219 L 140.023438 319.453125 L 161.636719 308.296875 L 139.667969 221.34375 C 137.011719 210.277344 127.886719 201.953125 116.636719 200.449219 Z M 36.914062 189.46875 " fill-opacity="1" fill-rule="nonzero"/><path fill="#000000" d="M 128.417969 293.863281 C 128.328125 293.863281 128.152344 293.773438 128.152344 293.683594 L 113.09375 259.773438 C 113.003906 259.59375 113.09375 259.417969 113.269531 259.328125 C 113.449219 259.242188 113.625 259.328125 113.714844 259.507812 L 128.773438 293.417969 C 128.859375 293.597656 128.773438 293.773438 128.59375 293.863281 C 128.507812 293.863281 128.507812 293.863281 128.417969 293.863281 Z M 128.417969 293.863281 " fill-opacity="1" fill-rule="nonzero"/><path fill="#000000" d="M 147.460938 254.902344 C 147.285156 254.902344 147.195312 254.8125 147.109375 254.636719 L 134 210.628906 C 133.910156 210.453125 134.085938 210.277344 134.175781 210.1875 C 134.351562 210.097656 134.53125 210.277344 134.617188 210.363281 L 147.726562 254.371094 C 147.816406 254.546875 147.640625 254.726562 147.550781 254.8125 C 147.550781 254.902344 147.550781 254.902344 147.460938 254.902344 Z M 147.460938 254.902344 " fill-opacity="1" fill-rule="nonzero"/><path fill="#ffffff" d="M 130.1875 211.074219 L 169.074219 193.542969 L 101.753906 184.511719 L 66.679688 201.332031 Z M 130.1875 211.074219 " fill-opacity="1" fill-rule="nonzero"/><path fill="#000000" d="M 130.1875 212.222656 C 130.101562 212.222656 130.101562 212.222656 130.011719 212.222656 L 66.5 202.484375 C 65.96875 202.394531 65.613281 202.042969 65.527344 201.511719 C 65.4375 200.980469 65.703125 200.535156 66.144531 200.269531 L 101.222656 183.449219 C 101.402344 183.359375 101.667969 183.269531 101.933594 183.359375 L 169.253906 192.390625 C 169.785156 192.480469 170.226562 192.832031 170.226562 193.363281 C 170.316406 193.894531 170.050781 194.425781 169.519531 194.605469 L 130.632812 212.136719 C 130.542969 212.222656 130.367188 212.222656 130.1875 212.222656 Z M 70.664062 200.800781 L 130.101562 209.921875 L 164.914062 194.25 L 102.019531 185.839844 Z M 70.664062 200.800781 " fill-opacity="1" fill-rule="nonzero"/><path fill="#ffad65" d="M 130.277344 185.660156 C 130.453125 186.636719 129.835938 187.609375 128.859375 187.785156 L 126.910156 188.050781 C 128.859375 187.785156 129.390625 188.671875 129.480469 189.378906 C 129.65625 190.355469 129.039062 191.238281 128.152344 191.417969 L 119.027344 194.605469 C 118.761719 194.691406 118.496094 194.78125 118.230469 194.871094 C 116.992188 197.082031 113.800781 199.386719 105.828125 198.5 L 65.4375 191.503906 L 62.515625 170.785156 L 106.449219 187.785156 L 110.082031 174.238281 C 110.347656 173.265625 111.320312 172.644531 112.296875 172.734375 C 113.269531 172.820312 114.15625 173.53125 114.332031 174.503906 L 114.953125 177.25 L 127.441406 175.566406 C 128.417969 175.390625 129.480469 176.007812 129.835938 176.984375 C 130.277344 178.132812 129.570312 179.285156 128.507812 179.640625 L 126.292969 180.523438 L 128.507812 180.171875 C 129.480469 180.082031 130.453125 180.613281 130.722656 181.589844 C 131.074219 182.652344 130.367188 183.800781 129.304688 183.980469 L 127.886719 184.332031 C 129.039062 184.15625 130.101562 184.6875 130.277344 185.660156 Z M 130.277344 185.660156 " fill-opacity="1" fill-rule="nonzero"/><path fill="#000000" d="M 119.558594 181.675781 C 119.472656 181.675781 119.382812 181.585938 119.382812 181.5 C 119.382812 181.410156 119.472656 181.234375 119.558594 181.234375 L 126.824219 179.992188 C 126.910156 179.992188 127.089844 180.082031 127.089844 180.171875 C 127.089844 180.257812 127 180.4375 126.910156 180.4375 L 119.558594 181.675781 C 119.648438 181.675781 119.648438 181.675781 119.558594 181.675781 Z M 119.558594 181.675781 " fill-opacity="1" fill-rule="nonzero"/><path fill="#000000" d="M 120.800781 185.925781 C 120.710938 185.925781 120.621094 185.839844 120.621094 185.75 C 120.621094 185.660156 120.710938 185.484375 120.800781 185.484375 L 127.53125 183.980469 C 127.621094 183.980469 127.796875 184.066406 127.796875 184.15625 C 127.796875 184.246094 127.710938 184.421875 127.621094 184.421875 Z M 120.800781 185.925781 " fill-opacity="1" fill-rule="nonzero"/><path fill="#000000" d="M 121.863281 189.46875 C 121.773438 189.46875 121.6875 189.378906 121.6875 189.292969 C 121.6875 189.203125 121.773438 189.027344 121.863281 189.027344 L 127.53125 187.699219 C 127.621094 187.699219 127.796875 187.785156 127.796875 187.875 C 127.796875 187.964844 127.710938 188.140625 127.621094 188.140625 Z M 121.863281 189.46875 " fill-opacity="1" fill-rule="nonzero"/><path fill="#ffad65" d="M 121.863281 143.78125 L 176.691406 118.101562 L 181.742188 124.917969 C 181.742188 124.917969 151.449219 146.4375 130.453125 159.539062 C 127.089844 161.664062 120.800781 157.414062 119.027344 153.875 C 117.34375 150.6875 118.675781 145.550781 121.863281 143.78125 Z M 121.863281 143.78125 " fill-opacity="1" fill-rule="nonzero"/><path fill="#ffad65" d="M 174.300781 121.378906 C 174.300781 121.378906 176.25 114.292969 183.515625 111.371094 L 187.941406 105.085938 C 188.652344 104.113281 189.890625 103.847656 190.953125 104.378906 C 192.105469 104.996094 192.550781 106.414062 192.015625 107.566406 L 190.070312 111.726562 L 191.398438 110.839844 C 193.523438 109.425781 195.117188 107.386719 195.914062 104.910156 L 198.21875 97.914062 C 198.484375 97.117188 199.105469 96.496094 199.902344 96.40625 C 201.496094 96.140625 202.824219 97.558594 202.46875 99.152344 L 200.609375 108.714844 C 199.902344 112.433594 197.6875 115.621094 194.496094 117.480469 L 177.402344 127.488281 Z M 174.300781 121.378906 " fill-opacity="1" fill-rule="nonzero"/><path fill="#f89a00" d="M 58.175781 86.046875 L 39.660156 90.210938 C 30.625 92.246094 24.070312 100.039062 23.628906 109.246094 L 22.566406 130.941406 C 22.035156 141.390625 23.628906 151.925781 27.082031 161.753906 L 36.914062 190.796875 L 97.414062 197.703125 L 99.804688 183.003906 L 102.019531 135.898438 L 116.992188 154.847656 C 121.417969 160.425781 129.304688 161.664062 135.238281 157.769531 L 170.757812 134.394531 L 163.316406 122.972656 L 130.101562 137.847656 L 108.132812 101.367188 C 104.589844 95.523438 98.742188 91.539062 92.011719 90.386719 L 73.941406 87.375 Z M 58.175781 86.046875 " fill-opacity="1" fill-rule="nonzero"/><path fill="#000000" d="M 99.804688 183.359375 C 99.804688 183.359375 99.71875 183.359375 99.71875 183.359375 L 61.539062 171.582031 C 58.175781 170.519531 55.605469 167.953125 54.632812 164.585938 L 47.191406 139.175781 C 47.101562 138.996094 47.277344 138.820312 47.457031 138.730469 C 47.632812 138.644531 47.8125 138.820312 47.898438 138.996094 L 55.339844 164.410156 C 56.226562 167.507812 58.617188 169.988281 61.804688 170.960938 L 99.984375 182.738281 C 100.160156 182.828125 100.25 183.003906 100.160156 183.183594 C 100.074219 183.269531 99.984375 183.359375 99.804688 183.359375 Z M 99.804688 183.359375 " fill-opacity="1" fill-rule="nonzero"/><path fill="#ffad65" d="M 54.632812 51.25 C 54.632812 51.25 51.53125 48.417969 48.875 51.25 C 44.800781 55.589844 50.46875 64.445312 56.402344 60.636719 Z M 54.632812 51.25 " fill-opacity="1" fill-rule="nonzero"/><path fill="#000000" d="M 54.808594 58.421875 C 54.71875 58.421875 54.542969 58.332031 54.542969 58.246094 C 53.125 54.792969 50.378906 54.613281 50.203125 54.613281 C 50.023438 54.613281 49.847656 54.4375 49.9375 54.261719 C 50.023438 54.082031 50.113281 53.90625 50.289062 53.996094 C 50.46875 53.996094 53.566406 54.261719 55.164062 58.066406 C 55.25 58.246094 55.164062 58.421875 54.984375 58.511719 C 54.898438 58.332031 54.898438 58.421875 54.808594 58.421875 Z M 54.808594 58.421875 " fill-opacity="1" fill-rule="nonzero"/><path fill="#ffad65" d="M 86.960938 54.261719 C 86.960938 54.261719 90.417969 52.046875 92.542969 55.234375 C 95.730469 60.105469 88.734375 67.71875 83.683594 63.027344 Z M 86.960938 54.261719 " fill-opacity="1" fill-rule="nonzero"/><path fill="#000000" d="M 85.722656 60.992188 C 85.632812 60.992188 85.632812 60.992188 85.546875 60.902344 C 85.367188 60.8125 85.367188 60.636719 85.457031 60.460938 C 87.671875 57.003906 90.59375 57.269531 90.683594 57.269531 C 90.859375 57.269531 90.949219 57.449219 90.949219 57.625 C 90.949219 57.800781 90.773438 57.980469 90.59375 57.890625 C 90.503906 57.890625 87.9375 57.625 85.988281 60.8125 C 85.898438 60.992188 85.8125 60.992188 85.722656 60.992188 Z M 85.722656 60.992188 " fill-opacity="1" fill-rule="nonzero"/><path fill="#ffad65" d="M 91.65625 44.609375 C 91.65625 45.257812 91.625 45.90625 91.5625 46.554688 C 91.496094 47.199219 91.402344 47.84375 91.277344 48.480469 C 91.148438 49.117188 90.992188 49.746094 90.804688 50.367188 C 90.613281 50.988281 90.394531 51.597656 90.148438 52.199219 C 89.898438 52.800781 89.621094 53.386719 89.3125 53.960938 C 89.007812 54.53125 88.675781 55.089844 88.3125 55.628906 C 87.953125 56.167969 87.566406 56.691406 87.152344 57.191406 C 86.742188 57.695312 86.304688 58.175781 85.847656 58.632812 C 85.386719 59.09375 84.90625 59.53125 84.402344 59.941406 C 83.902344 60.355469 83.378906 60.738281 82.839844 61.101562 C 82.296875 61.460938 81.742188 61.796875 81.167969 62.101562 C 80.597656 62.40625 80.007812 62.683594 79.410156 62.933594 C 78.808594 63.183594 78.195312 63.402344 77.574219 63.589844 C 76.953125 63.777344 76.324219 63.9375 75.6875 64.0625 C 75.050781 64.1875 74.40625 64.285156 73.761719 64.347656 C 73.113281 64.410156 72.464844 64.445312 71.816406 64.445312 C 71.164062 64.445312 70.515625 64.410156 69.871094 64.347656 C 69.222656 64.285156 68.582031 64.1875 67.945312 64.0625 C 67.308594 63.9375 66.675781 63.777344 66.054688 63.589844 C 65.433594 63.402344 64.824219 63.183594 64.222656 62.933594 C 63.621094 62.683594 63.035156 62.40625 62.460938 62.101562 C 61.890625 61.796875 61.332031 61.460938 60.792969 61.101562 C 60.25 60.738281 59.730469 60.355469 59.226562 59.941406 C 58.726562 59.53125 58.246094 59.09375 57.785156 58.632812 C 57.324219 58.175781 56.890625 57.695312 56.476562 57.191406 C 56.066406 56.691406 55.679688 56.167969 55.316406 55.628906 C 54.957031 55.089844 54.621094 54.53125 54.316406 53.960938 C 54.011719 53.386719 53.734375 52.800781 53.484375 52.199219 C 53.234375 51.597656 53.015625 50.988281 52.828125 50.367188 C 52.640625 49.746094 52.480469 49.117188 52.355469 48.480469 C 52.226562 47.84375 52.132812 47.199219 52.070312 46.554688 C 52.003906 45.90625 51.972656 45.257812 51.972656 44.609375 C 51.972656 43.960938 52.003906 43.3125 52.070312 42.664062 C 52.132812 42.019531 52.226562 41.378906 52.355469 40.738281 C 52.480469 40.101562 52.640625 39.472656 52.828125 38.851562 C 53.015625 38.230469 53.234375 37.621094 53.484375 37.019531 C 53.734375 36.417969 54.011719 35.832031 54.316406 35.261719 C 54.621094 34.6875 54.957031 34.128906 55.316406 33.589844 C 55.679688 33.050781 56.066406 32.527344 56.476562 32.027344 C 56.890625 31.523438 57.324219 31.042969 57.785156 30.585938 C 58.246094 30.125 58.726562 29.691406 59.226562 29.277344 C 59.730469 28.867188 60.25 28.480469 60.792969 28.117188 C 61.332031 27.757812 61.890625 27.421875 62.460938 27.117188 C 63.035156 26.8125 63.621094 26.535156 64.222656 26.285156 C 64.824219 26.035156 65.433594 25.816406 66.054688 25.628906 C 66.675781 25.441406 67.308594 25.285156 67.945312 25.15625 C 68.582031 25.03125 69.222656 24.933594 69.871094 24.871094 C 70.515625 24.808594 71.164062 24.777344 71.816406 24.777344 C 72.464844 24.777344 73.113281 24.808594 73.761719 24.871094 C 74.40625 24.933594 75.050781 25.03125 75.6875 25.15625 C 76.324219 25.285156 76.953125 25.441406 77.574219 25.628906 C 78.195312 25.816406 78.808594 26.035156 79.410156 26.285156 C 80.007812 26.535156 80.597656 26.8125 81.167969 27.117188 C 81.742188 27.421875 82.296875 27.757812 82.839844 28.117188 C 83.378906 28.480469 83.902344 28.867188 84.402344 29.277344 C 84.90625 29.691406 85.386719 30.125 85.847656 30.585938 C 86.304688 31.042969 86.742188 31.523438 87.152344 32.027344 C 87.566406 32.527344 87.953125 33.050781 88.3125 33.589844 C 88.675781 34.128906 89.007812 34.6875 89.3125 35.261719 C 89.621094 35.832031 89.898438 36.417969 90.148438 37.019531 C 90.394531 37.621094 90.613281 38.230469 90.804688 38.851562 C 90.992188 39.472656 91.148438 40.101562 91.277344 40.738281 C 91.402344 41.378906 91.496094 42.019531 91.5625 42.664062 C 91.625 43.3125 91.65625 43.960938 91.65625 44.609375 Z M 91.65625 44.609375 " fill-opacity="1" fill-rule="nonzero"/><path fill="#000000" d="M 91.65625 44.609375 C 91.65625 45.257812 91.625 45.90625 91.5625 46.554688 C 91.496094 47.199219 91.402344 47.84375 91.277344 48.480469 C 91.148438 49.117188 90.992188 49.746094 90.804688 50.367188 C 90.613281 50.988281 90.394531 51.597656 90.148438 52.199219 C 89.898438 52.800781 89.621094 53.386719 89.3125 53.960938 C 89.007812 54.53125 88.675781 55.089844 88.3125 55.628906 C 87.953125 56.167969 87.566406 56.691406 87.152344 57.191406 C 86.742188 57.695312 86.304688 58.175781 85.847656 58.632812 C 85.386719 59.09375 84.90625 59.53125 84.402344 59.941406 C 83.902344 60.355469 83.378906 60.738281 82.839844 61.101562 C 82.296875 61.460938 81.742188 61.796875 81.167969 62.101562 C 80.597656 62.40625 80.007812 62.683594 79.410156 62.933594 C 78.808594 63.183594 78.195312 63.402344 77.574219 63.589844 C 76.953125 63.777344 76.324219 63.9375 75.6875 64.0625 C 75.050781 64.1875 74.40625 64.285156 73.761719 64.347656 C 73.113281 64.410156 72.464844 64.445312 71.816406 64.445312 C 71.164062 64.445312 70.515625 64.410156 69.871094 64.347656 C 69.222656 64.285156 68.582031 64.1875 67.945312 64.0625 C 67.308594 63.9375 66.675781 63.777344 66.054688 63.589844 C 65.433594 63.402344 64.824219 63.183594 64.222656 62.933594 C 63.621094 62.683594 63.035156 62.40625 62.460938 62.101562 C 61.890625 61.796875 61.332031 61.460938 60.792969 61.101562 C 60.25 60.738281 59.730469 60.355469 59.226562 59.941406 C 58.726562 59.53125 58.246094 59.09375 57.785156 58.632812 C 57.324219 58.175781 56.890625 57.695312 56.476562 57.191406 C 56.066406 56.691406 55.679688 56.167969 55.316406 55.628906 C 54.957031 55.089844 54.621094 54.53125 54.316406 53.960938 C 54.011719 53.386719 53.734375 52.800781 53.484375 52.199219 C 53.234375 51.597656 53.015625 50.988281 52.828125 50.367188 C 52.640625 49.746094 52.480469 49.117188 52.355469 48.480469 C 52.226562 47.84375 52.132812 47.199219 52.070312 46.554688 C 52.003906 45.90625 51.972656 45.257812 51.972656 44.609375 C 51.972656 43.960938 52.003906 43.3125 52.070312 42.664062 C 52.132812 42.019531 52.226562 41.378906 52.355469 40.738281 C 52.480469 40.101562 52.640625 39.472656 52.828125 38.851562 C 53.015625 38.230469 53.234375 37.621094 53.484375 37.019531 C 53.734375 36.417969 54.011719 35.832031 54.316406 35.261719 C 54.621094 34.6875 54.957031 34.128906 55.316406 33.589844 C 55.679688 33.050781 56.066406 32.527344 56.476562 32.027344 C 56.890625 31.523438 57.324219 31.042969 57.785156 30.585938 C 58.246094 30.125 58.726562 29.691406 59.226562 29.277344 C 59.730469 28.867188 60.25 28.480469 60.792969 28.117188 C 61.332031 27.757812 61.890625 27.421875 62.460938 27.117188 C 63.035156 26.8125 63.621094 26.535156 64.222656 26.285156 C 64.824219 26.035156 65.433594 25.816406 66.054688 25.628906 C 66.675781 25.441406 67.308594 25.285156 67.945312 25.15625 C 68.582031 25.03125 69.222656 24.933594 69.871094 24.871094 C 70.515625 24.808594 71.164062 24.777344 71.816406 24.777344 C 72.464844 24.777344 73.113281 24.808594 73.761719 24.871094 C 74.40625 24.933594 75.050781 25.03125 75.6875 25.15625 C 76.324219 25.285156 76.953125 25.441406 77.574219 25.628906 C 78.195312 25.816406 78.808594 26.035156 79.410156 26.285156 C 80.007812 26.535156 80.597656 26.8125 81.167969 27.117188 C 81.742188 27.421875 82.296875 27.757812 82.839844 28.117188 C 83.378906 28.480469 83.902344 28.867188 84.402344 29.277344 C 84.90625 29.691406 85.386719 30.125 85.847656 30.585938 C 86.304688 31.042969 86.742188 31.523438 87.152344 32.027344 C 87.566406 32.527344 87.953125 33.050781 88.3125 33.589844 C 88.675781 34.128906 89.007812 34.6875 89.3125 35.261719 C 89.621094 35.832031 89.898438 36.417969 90.148438 37.019531 C 90.394531 37.621094 90.613281 38.230469 90.804688 38.851562 C 90.992188 39.472656 91.148438 40.101562 91.277344 40.738281 C 91.402344 41.378906 91.496094 42.019531 91.5625 42.664062 C 91.625 43.3125 91.65625 43.960938 91.65625 44.609375 Z M 91.65625 44.609375 " fill-opacity="1" fill-rule="nonzero"/><path fill="#ffad65" d="M 61.273438 66.921875 L 58.527344 86.046875 L 67.476562 93.398438 L 74.296875 87.464844 L 74.207031 67.542969 Z M 61.273438 66.921875 " fill-opacity="1" fill-rule="nonzero"/><path fill="#000000" d="M 60.921875 69.578125 C 61.363281 69.84375 74.296875 79.851562 74.296875 79.851562 L 74.296875 69.757812 Z M 60.921875 69.578125 " fill-opacity="1" fill-rule="nonzero"/><path fill="#ffad65" d="M 55.871094 42.484375 C 55.871094 42.484375 50.910156 71.261719 68.890625 73.210938 C 88.203125 75.246094 88.292969 45.316406 88.292969 45.316406 C 88.292969 45.316406 89.441406 30.089844 73.234375 28.671875 C 58.351562 27.433594 55.871094 42.484375 55.871094 42.484375 Z M 55.871094 42.484375 " fill-opacity="1" fill-rule="nonzero"/><path fill="#000000" d="M 56.3125 33.71875 C 56.3125 33.71875 69.957031 31.152344 87.140625 36.375 C 87.140625 36.375 86.253906 27.519531 72.4375 26.371094 C 58.707031 25.128906 56.3125 33.71875 56.3125 33.71875 Z M 56.3125 33.71875 " fill-opacity="1" fill-rule="nonzero"/><path fill="#000000" d="M 70.398438 51.160156 C 70.308594 51.957031 69.601562 52.402344 68.804688 52.3125 C 68.007812 52.222656 67.5625 51.515625 67.652344 50.71875 C 67.742188 49.921875 68.449219 49.480469 69.246094 49.566406 C 70.042969 49.65625 70.574219 50.363281 70.398438 51.160156 Z M 70.398438 51.160156 " fill-opacity="1" fill-rule="nonzero"/><path fill="#000000" d="M 84.304688 53.640625 C 84.214844 54.4375 83.507812 54.878906 82.710938 54.792969 C 81.914062 54.703125 81.46875 53.996094 81.558594 53.199219 C 81.648438 52.402344 82.355469 51.957031 83.152344 52.046875 C 83.949219 52.222656 84.480469 52.933594 84.304688 53.640625 Z M 84.304688 53.640625 " fill-opacity="1" fill-rule="nonzero"/><path fill="#000000" d="M 74.117188 56.828125 C 73.941406 56.828125 73.851562 56.652344 73.851562 56.472656 C 73.851562 56.296875 74.03125 56.121094 74.207031 56.121094 L 75.269531 56.121094 C 75.449219 56.121094 75.625 55.941406 75.714844 55.765625 L 75.003906 53.375 C 74.914062 53.199219 75.09375 53.019531 75.269531 52.933594 C 75.449219 52.84375 75.625 53.019531 75.714844 53.199219 L 76.421875 55.675781 C 76.421875 55.675781 76.421875 55.765625 76.421875 55.765625 C 76.421875 56.386719 75.980469 56.828125 75.359375 56.828125 Z M 74.117188 56.828125 " fill-opacity="1" fill-rule="nonzero"/><path fill="#000000" d="M 79.789062 45.761719 C 79.789062 45.761719 79.078125 47.265625 81.46875 47.621094 C 83.332031 47.972656 85.457031 48.769531 86.429688 49.125 C 86.960938 49.390625 87.671875 49.214844 88.027344 48.859375 C 88.292969 48.503906 88.292969 48.152344 88.027344 47.796875 C 87.492188 47.089844 85.28125 45.316406 83.066406 44.964844 C 80.40625 44.433594 79.789062 45.761719 79.789062 45.761719 Z M 79.789062 45.761719 " fill-opacity="1" fill-rule="nonzero"/><path fill="#000000" d="M 72.523438 44.609375 C 72.523438 44.609375 72.703125 46.203125 70.308594 45.847656 C 68.449219 45.582031 66.144531 45.671875 65.082031 45.761719 C 64.464844 45.761719 63.84375 45.496094 63.667969 44.964844 C 63.488281 44.609375 63.578125 44.167969 64.019531 43.902344 C 64.730469 43.371094 67.386719 42.394531 69.601562 42.75 C 72.347656 43.191406 72.523438 44.609375 72.523438 44.609375 Z M 72.523438 44.609375 " fill-opacity="1" fill-rule="nonzero"/><path fill="#000000" d="M 70.664062 59.042969 L 77.394531 60.105469 C 78.457031 60.28125 79.433594 60.992188 79.875 61.964844 L 80.054688 62.320312 C 80.230469 62.761719 79.875 63.292969 79.34375 63.203125 L 67.828125 61.34375 C 67.386719 61.257812 67.121094 60.726562 67.386719 60.371094 C 68.183594 59.398438 69.425781 58.867188 70.664062 59.042969 Z M 70.664062 59.042969 " fill-opacity="1" fill-rule="nonzero"/><path fill="#ffad65" d="M 58.972656 34.25 C 58.972656 34.25 60.125 38.144531 55.605469 42.925781 L 54.632812 39.386719 L 58.972656 31.417969 " fill-opacity="1" fill-rule="nonzero"/><path fill="#ffad65" d="M 86.34375 36.550781 C 86.34375 36.550781 84.570312 40.183594 88.203125 45.671875 L 89.707031 42.308594 L 86.875 33.808594 " fill-opacity="1" fill-rule="nonzero"/><g clip-path="url(#id7)"><path fill="#ffad65" d="M 59.148438 34.691406 C 59.148438 34.691406 69.335938 33.453125 76.332031 38.675781 C 84.304688 44.699219 91.570312 39.472656 91.039062 32.65625 C 90.417969 25.574219 81.027344 23.183594 71.816406 23.714844 C 64.375 24.15625 59.769531 27.433594 59.769531 27.433594 Z M 59.148438 34.691406 " fill-opacity="1" fill-rule="nonzero"/></g><path fill="#ffad65" d="M 62.070312 27.34375 C 62.070312 27.34375 46.835938 26.902344 52.0625 47.355469 Z M 62.070312 27.34375 " fill-opacity="1" fill-rule="nonzero"/><path fill="#000000" d="M 58.972656 34.25 C 58.972656 34.25 60.125 38.144531 55.605469 42.925781 L 54.632812 39.386719 L 58.972656 31.417969 " fill-opacity="1" fill-rule="nonzero"/><path fill="#000000" d="M 86.34375 36.550781 C 86.34375 36.550781 84.570312 40.183594 88.203125 45.671875 L 89.707031 42.308594 L 86.875 33.808594 " fill-opacity="1" fill-rule="nonzero"/><g clip-path="url(#id8)"><path fill="#000000" d="M 59.148438 34.691406 C 59.148438 34.691406 69.335938 33.453125 76.332031 38.675781 C 84.304688 44.699219 91.570312 39.472656 91.039062 32.65625 C 90.417969 25.574219 81.027344 23.183594 71.816406 23.714844 C 64.375 24.15625 59.769531 27.433594 59.769531 27.433594 Z M 59.148438 34.691406 " fill-opacity="1" fill-rule="nonzero"/></g><path fill="#000000" d="M 62.070312 27.34375 C 62.070312 27.34375 46.835938 26.902344 52.0625 47.355469 Z M 62.070312 27.34375 " fill-opacity="1" fill-rule="nonzero"/><path fill="#ffffff" d="M 47.542969 88.4375 L 76.332031 135.988281 L 85.722656 89.414062 L 74.296875 86.84375 L 67.476562 93.398438 L 58.617188 85.78125 Z M 47.542969 88.4375 " fill-opacity="1" fill-rule="nonzero"/><path fill="#000000" d="M 80.496094 177.425781 C 80.320312 177.425781 80.230469 177.335938 80.140625 177.160156 L 75.980469 136.074219 C 75.980469 135.898438 76.066406 135.722656 76.246094 135.722656 C 76.421875 135.722656 76.597656 135.808594 76.597656 135.988281 L 80.761719 177.070312 C 80.851562 177.25 80.671875 177.425781 80.496094 177.425781 Z M 80.496094 177.425781 " fill-opacity="1" fill-rule="nonzero"/><path fill="#ffad65" d="M 283.785156 118.277344 L 284.226562 138.289062 L 299.285156 136.960938 L 295.566406 104.378906 Z M 283.785156 118.277344 " fill-opacity="1" fill-rule="nonzero"/><path fill="#000000" d="M 284.050781 129.964844 L 294.769531 115.710938 L 283.875 119.339844 Z M 284.050781 129.964844 " fill-opacity="1" fill-rule="nonzero"/><path fill="#ffad65" d="M 279.179688 83.480469 C 273.953125 83.746094 271.03125 88.96875 270.054688 93.75 C 268.992188 99.328125 267.664062 108.007812 269.082031 112.433594 C 271.207031 119.253906 276.609375 123.679688 285.46875 122.085938 C 285.46875 122.085938 295.742188 121.730469 298.578125 106.589844 C 301.945312 88.527344 290.25 82.949219 279.179688 83.480469 Z M 279.179688 83.480469 " fill-opacity="1" fill-rule="nonzero"/><path fill="#000000" d="M 272.449219 101.277344 C 272.269531 101.898438 271.648438 102.253906 271.03125 102.074219 C 270.410156 101.898438 270.054688 101.277344 270.234375 100.660156 C 270.410156 100.039062 271.03125 99.683594 271.648438 99.859375 C 272.269531 99.949219 272.625 100.660156 272.449219 101.277344 Z M 272.449219 101.277344 " fill-opacity="1" fill-rule="nonzero"/><path fill="#000000" d="M 282.28125 102.074219 C 282.101562 102.695312 281.484375 103.050781 280.863281 102.871094 C 280.242188 102.695312 279.886719 102.074219 280.066406 101.457031 C 280.242188 100.835938 280.863281 100.480469 281.484375 100.660156 C 282.101562 100.835938 282.457031 101.457031 282.28125 102.074219 Z M 282.28125 102.074219 " fill-opacity="1" fill-rule="nonzero"/><path fill="#000000" d="M 274.925781 107.476562 L 273.6875 107.121094 C 273.421875 107.035156 273.246094 106.855469 273.066406 106.679688 C 272.980469 106.414062 272.890625 106.148438 272.980469 105.972656 L 274.128906 102.695312 C 274.21875 102.519531 274.394531 102.429688 274.484375 102.519531 C 274.660156 102.605469 274.75 102.785156 274.660156 102.871094 L 273.511719 106.148438 C 273.511719 106.238281 273.511719 106.324219 273.511719 106.414062 C 273.511719 106.503906 273.597656 106.589844 273.6875 106.589844 L 274.925781 106.945312 C 275.105469 107.035156 275.195312 107.121094 275.105469 107.300781 C 275.28125 107.386719 275.105469 107.476562 274.925781 107.476562 Z M 274.925781 107.476562 " fill-opacity="1" fill-rule="nonzero"/><path fill="#000000" d="M 272.535156 109.070312 L 281.570312 110.308594 C 281.570312 110.308594 280.863281 114.207031 276.699219 113.675781 C 272.535156 113.144531 272.535156 109.070312 272.535156 109.070312 Z M 272.535156 109.070312 " fill-opacity="1" fill-rule="nonzero"/><g clip-path="url(#id9)"><g clip-path="url(#id10)"><path fill="#ffffff" d="M 271.738281 110.222656 L 282.015625 111.460938 L 282.191406 109.777344 L 272.003906 108.097656 Z M 271.738281 110.222656 " fill-opacity="1" fill-rule="nonzero"/></g></g><path fill="#000000" d="M 274.21875 92.953125 C 274.21875 92.953125 274.574219 94.371094 272.800781 94.460938 C 271.472656 94.546875 270.675781 94.636719 269.878906 94.8125 C 269.4375 94.992188 268.992188 94.726562 268.726562 94.371094 C 268.550781 94.015625 268.550781 93.664062 268.816406 93.398438 C 269.257812 92.777344 270.234375 91.980469 271.828125 91.804688 C 273.953125 91.625 274.21875 92.953125 274.21875 92.953125 Z M 274.21875 92.953125 " fill-opacity="1" fill-rule="nonzero"/><path fill="#000000" d="M 280.242188 93.484375 C 280.242188 93.484375 279.621094 94.8125 281.75 95.257812 C 283.429688 95.609375 285.378906 96.40625 286.265625 96.761719 C 286.796875 96.9375 287.417969 96.851562 287.773438 96.496094 C 288.039062 96.230469 288.039062 95.789062 287.859375 95.523438 C 287.328125 94.902344 285.378906 93.21875 283.34375 92.777344 C 280.773438 92.335938 280.242188 93.484375 280.242188 93.484375 Z M 280.242188 93.484375 " fill-opacity="1" fill-rule="nonzero"/><path fill="#000000" d="M 294.0625 108.894531 L 292.820312 97.558594 C 292.554688 94.902344 293.53125 92.867188 294.414062 89.765625 C 284.582031 88.882812 273.066406 87.730469 273.15625 86.84375 C 273.15625 86.84375 278.027344 77.8125 294.859375 80.648438 C 317.800781 84.542969 306.992188 112.167969 296.539062 116.863281 Z M 294.0625 108.894531 " fill-opacity="1" fill-rule="nonzero"/><path fill="#ffad65" d="M 304.957031 109.601562 C 303.894531 112.878906 300.4375 114.648438 297.160156 113.585938 C 293.882812 112.523438 292.113281 109.070312 293.175781 105.792969 C 294.238281 102.519531 297.691406 100.746094 300.96875 101.808594 C 304.160156 102.871094 306.019531 106.324219 304.957031 109.601562 Z M 304.957031 109.601562 " fill-opacity="1" fill-rule="nonzero"/><path fill="#000000" d="M 296.007812 109.867188 C 295.832031 109.777344 295.742188 109.691406 295.742188 109.511719 C 296.1875 107.917969 296.984375 106.769531 298.136719 106.058594 C 299.90625 105.085938 301.855469 105.617188 301.945312 105.707031 C 302.121094 105.792969 302.210938 105.882812 302.121094 106.058594 C 302.03125 106.238281 301.945312 106.324219 301.765625 106.238281 C 301.765625 106.238281 299.996094 105.707031 298.402344 106.589844 C 297.425781 107.121094 296.71875 108.183594 296.363281 109.601562 C 296.363281 109.777344 296.1875 109.867188 296.007812 109.867188 Z M 296.007812 109.867188 " fill-opacity="1" fill-rule="nonzero"/><path fill="#ffad65" d="M 334.097656 202.925781 C 334.097656 203.722656 334.097656 204.519531 334.097656 205.230469 C 333.832031 217.535156 332.503906 229.667969 331.617188 241.886719 C 330.644531 248.96875 327.898438 251.183594 325.773438 251.804688 C 325.683594 251.980469 325.507812 252.246094 325.417969 252.421875 L 320.722656 259.59375 C 320.367188 260.304688 319.484375 260.65625 318.6875 260.304688 C 318.15625 260.039062 317.445312 259.417969 318.15625 257.824219 L 317.535156 259.507812 C 317.179688 260.304688 316.207031 260.65625 315.410156 260.214844 C 314.699219 259.859375 314.34375 258.886719 314.699219 257.824219 L 314.078125 258.976562 C 313.636719 259.859375 312.574219 260.125 311.6875 259.683594 C 310.890625 259.242188 310.714844 258.265625 310.980469 257.46875 L 311.6875 255.789062 L 311.777344 255.609375 L 310.535156 257.382812 C 310.003906 258.265625 308.855469 258.53125 307.96875 257.914062 C 307.171875 257.382812 306.90625 256.40625 307.257812 255.523438 L 311.421875 245.164062 L 309.207031 244.101562 C 308.410156 243.746094 307.96875 242.859375 308.054688 241.976562 C 308.234375 241.089844 308.941406 240.382812 309.828125 240.382812 L 322.316406 240.117188 C 319.128906 214.703125 316.472656 189.292969 314.167969 163.789062 C 314.078125 157.945312 318.953125 153.164062 324.621094 153.164062 C 324.796875 153.164062 324.976562 153.164062 325.242188 153.164062 C 330.554688 153.519531 330.644531 159.539062 331.707031 164.765625 C 334.097656 176.984375 334.1875 189.734375 334.097656 202.925781 Z M 334.097656 202.925781 " fill-opacity="1" fill-rule="nonzero"/><path fill="#000000" d="M 311.332031 256.320312 C 311.15625 256.230469 311.15625 256.140625 311.15625 256.054688 L 313.726562 250.121094 C 313.726562 250.03125 313.902344 249.945312 313.992188 250.03125 C 314.078125 250.03125 314.167969 250.210938 314.078125 250.296875 L 311.511719 256.230469 C 311.511719 256.320312 311.421875 256.320312 311.332031 256.320312 Z M 311.332031 256.320312 " fill-opacity="1" fill-rule="nonzero"/><path fill="#000000" d="M 314.609375 257.734375 C 314.433594 257.648438 314.433594 257.558594 314.433594 257.46875 L 317.179688 251.980469 C 317.269531 251.890625 317.355469 251.804688 317.445312 251.890625 C 317.535156 251.980469 317.621094 252.070312 317.535156 252.15625 L 314.789062 257.648438 C 314.789062 257.734375 314.699219 257.734375 314.609375 257.734375 Z M 314.609375 257.734375 " fill-opacity="1" fill-rule="nonzero"/><path fill="#000000" d="M 317.800781 258.53125 C 317.800781 258.53125 317.710938 258.53125 317.710938 258.53125 C 317.621094 258.445312 317.621094 258.355469 317.621094 258.265625 L 320.015625 253.664062 C 320.101562 253.574219 320.191406 253.574219 320.28125 253.574219 C 320.367188 253.574219 320.367188 253.75 320.367188 253.839844 L 317.976562 258.445312 C 317.886719 258.53125 317.886719 258.53125 317.800781 258.53125 Z M 317.800781 258.53125 " fill-opacity="1" fill-rule="nonzero"/><path fill="#3f2952" d="M 319.570312 140.503906 C 319.570312 140.503906 334.1875 148.382812 336.578125 178.753906 L 315.144531 185.574219 L 307.4375 161.3125 Z M 319.570312 140.503906 " fill-opacity="1" fill-rule="nonzero"/><path fill="#000000" d="M 234.800781 277.925781 C 234.625 277.925781 234.445312 277.746094 234.445312 277.570312 C 234.445312 277.394531 234.625 259.417969 234.445312 246.3125 C 234.269531 233.121094 238.699219 227.453125 238.875 227.277344 C 238.964844 227.101562 239.230469 227.101562 239.320312 227.1875 C 239.496094 227.277344 239.496094 227.542969 239.40625 227.632812 C 239.320312 227.71875 234.976562 233.296875 235.15625 246.3125 C 235.332031 259.417969 235.15625 277.394531 235.15625 277.570312 C 235.15625 277.746094 234.976562 277.925781 234.800781 277.925781 Z M 234.800781 277.925781 " fill-opacity="1" fill-rule="nonzero"/><path fill="#000000" d="M 258.007812 308.914062 C 257.742188 308.914062 257.65625 308.738281 257.65625 308.5625 L 261.019531 282.707031 C 261.019531 282.527344 261.199219 282.441406 261.375 282.441406 C 261.550781 282.441406 261.640625 282.617188 261.640625 282.792969 L 258.273438 308.648438 C 258.363281 308.828125 258.1875 308.914062 258.007812 308.914062 Z M 258.007812 308.914062 " fill-opacity="1" fill-rule="nonzero"/><path fill="#000000" d="M 315.675781 185.75 C 315.496094 185.75 315.410156 185.660156 315.320312 185.484375 L 312.484375 160.78125 C 312.484375 160.601562 312.574219 160.425781 312.75 160.425781 C 312.929688 160.425781 313.105469 160.515625 313.105469 160.691406 L 315.941406 185.394531 C 316.027344 185.574219 315.941406 185.660156 315.675781 185.75 C 315.761719 185.75 315.675781 185.75 315.675781 185.75 Z M 315.675781 185.75 " fill-opacity="1" fill-rule="nonzero"/><path fill="#ffffff" d="M 67.652344 43.8125 L 72.613281 54.4375 C 72.613281 54.4375 69.777344 57.980469 66.589844 56.828125 L 61.539062 46.378906 C 61.453125 46.46875 64.109375 42.839844 67.652344 43.8125 Z M 67.652344 43.8125 " fill-opacity="0.2275" fill-rule="nonzero"/><path fill="#ffffff" d="M 83.332031 47 L 88.292969 57.625 C 88.292969 57.625 85.457031 61.167969 82.269531 60.015625 L 77.128906 49.65625 C 77.128906 49.65625 79.789062 46.027344 83.332031 47 Z M 83.332031 47 " fill-opacity="0.2275" fill-rule="nonzero"/><path fill="#ffffff" d="M 66.234375 57.449219 C 65.96875 57.449219 65.792969 57.359375 65.527344 57.359375 C 61.71875 56.5625 59.238281 52.84375 60.035156 49.035156 C 60.390625 47.175781 61.453125 45.582031 63.046875 44.609375 C 64.640625 43.546875 66.5 43.191406 68.359375 43.546875 C 70.222656 43.902344 71.816406 44.964844 72.789062 46.558594 C 73.851562 48.152344 74.207031 50.011719 73.851562 51.871094 C 73.5 53.730469 72.4375 55.324219 70.839844 56.296875 C 69.511719 57.183594 67.917969 57.535156 66.234375 57.449219 Z M 67.652344 43.902344 C 66.144531 43.722656 64.640625 44.078125 63.3125 44.964844 C 61.894531 45.9375 60.832031 47.441406 60.476562 49.125 C 59.769531 52.667969 62.070312 56.121094 65.613281 56.828125 C 67.296875 57.183594 69.070312 56.828125 70.574219 55.855469 C 71.992188 54.878906 73.054688 53.375 73.410156 51.691406 C 73.765625 50.011719 73.410156 48.238281 72.4375 46.734375 C 71.460938 45.316406 69.957031 44.253906 68.273438 43.902344 C 68.09375 43.988281 67.917969 43.902344 67.652344 43.902344 Z M 67.652344 43.902344 " fill-opacity="1" fill-rule="nonzero"/><path fill="#ffffff" d="M 81.914062 60.636719 C 81.738281 60.636719 81.46875 60.546875 81.292969 60.546875 C 77.484375 59.75 75.003906 56.03125 75.800781 52.222656 C 76.15625 50.363281 77.21875 48.769531 78.8125 47.796875 C 80.40625 46.734375 82.269531 46.378906 84.128906 46.734375 C 85.988281 47.089844 87.582031 48.152344 88.558594 49.746094 C 89.53125 51.339844 89.972656 53.199219 89.621094 55.058594 C 88.824219 58.597656 85.546875 60.992188 81.914062 60.636719 Z M 83.417969 47.089844 C 81.914062 46.910156 80.40625 47.265625 79.078125 48.152344 C 77.660156 49.125 76.597656 50.628906 76.246094 52.3125 C 75.535156 55.855469 77.839844 59.308594 81.382812 60.015625 C 84.925781 60.726562 88.378906 58.421875 89.089844 54.878906 C 89.441406 53.199219 89.089844 51.425781 88.113281 49.921875 C 87.140625 48.503906 85.632812 47.441406 83.949219 47.089844 C 83.773438 47.175781 83.597656 47.089844 83.417969 47.089844 Z M 83.417969 47.089844 " fill-opacity="1" fill-rule="nonzero"/><path fill="#ffffff" d="M 75.890625 52.402344 C 74.914062 51.605469 73.765625 51.957031 73.765625 51.957031 L 73.585938 51.515625 C 73.675781 51.515625 75.003906 51.074219 76.15625 52.046875 Z M 75.890625 52.402344 " fill-opacity="1" fill-rule="nonzero"/><path fill="#ffffff" d="M 213.1875 344.421875 L 220.363281 343.09375 L 226.917969 344.066406 L 222.933594 345.484375 L 215.578125 345.484375 Z M 213.1875 344.421875 " fill-opacity="1" fill-rule="nonzero"/><path fill="#000000" d="M 74.5625 64.445312 C 74.472656 64.179688 74.296875 64.089844 74.03125 64.179688 C 73.410156 64.265625 72.789062 64.265625 72.257812 64.089844 C 71.816406 63.914062 71.371094 63.648438 71.195312 63.292969 C 70.929688 62.851562 70.132812 63.292969 70.398438 63.734375 C 70.753906 64.355469 71.285156 64.710938 71.992188 64.976562 C 72.703125 65.242188 73.5 65.152344 74.296875 65.0625 C 74.472656 64.886719 74.648438 64.621094 74.5625 64.445312 Z M 74.5625 64.445312 " fill-opacity="1" fill-rule="nonzero"/><path fill="#ffffff" d="M 52.503906 50.453125 C 52.238281 50.453125 52.0625 50.277344 52.0625 50.011719 C 52.0625 49.746094 52.238281 49.566406 52.503906 49.566406 L 60.210938 49.125 C 60.476562 49.125 60.65625 49.300781 60.65625 49.566406 C 60.65625 49.832031 60.476562 50.011719 60.210938 50.011719 Z M 52.503906 50.453125 " fill-opacity="1" fill-rule="nonzero"/></svg>